<svg xmlns="http://www.w3.org/2000/svg" viewBox="0 0 379.31 101.28"><defs><style>.cls-1{fill:#231f20;}.cls-2{fill:#fff;}</style></defs><g id="Layer_2" data-name="Layer 2"><g id="Layer_1-2" data-name="Layer 1"><path class="cls-1" d="M25.77,57.78H2.66L40.42,33.87v17.2Zm14.65,24-37.76-24H25.77L40.42,65Z" transform="translate(-2.66 -6.66)"/><path class="cls-1" d="M108.53,15.82h10.91l11.61,52.66L138,15.82h14.21l-13.9,77.42H125.14l-10.81-52-11.45,52H89.68L75.83,15.82H90.05l6.87,52.66Z" transform="translate(-2.66 -6.66)"/><path class="cls-1" d="M159.65,15.82h13.84V93.24H159.65Zm8,64.06h14.22q5,0,7.64-2.53c1.79-1.69,2.69-4.09,2.69-7.22V38.93c0-3.13-.9-5.53-2.69-7.22s-4.34-2.53-7.64-2.53H167.69V15.82h14.7a29.61,29.61,0,0,1,13,2.63,18.36,18.36,0,0,1,8.22,7.72,24.63,24.63,0,0,1,2.83,12.17V70.72a24.78,24.78,0,0,1-2.75,12,18.44,18.44,0,0,1-8.17,7.83,29,29,0,0,1-13.21,2.74H167.69Z" transform="translate(-2.66 -6.66)"/><path class="cls-1" d="M226.64,92.1a20,20,0,0,1-8.17-5.78,22.47,22.47,0,0,1-4.56-9.53l12.94-5.7a14,14,0,0,0,4.61,7,12,12,0,0,0,7.53,2.4,11.21,11.21,0,0,0,7.14-2,6.81,6.81,0,0,0,2.56-5.64V69.44a6.27,6.27,0,0,0-1.5-4.31,10.22,10.22,0,0,0-3.88-2.69q-2.4-1-6.29-2.16a.81.81,0,0,0-.29-.13.49.49,0,0,1-.19-.08l-.69-.16A66.33,66.33,0,0,1,225.49,56a17.93,17.93,0,0,1-6.84-6.26q-2.82-4.23-2.82-11.32V36.26a22.25,22.25,0,0,1,2.8-11.44,18,18,0,0,1,8.12-7.3A30.23,30.23,0,0,1,239.69,15a26.21,26.21,0,0,1,10.14,1.83,18.16,18.16,0,0,1,7.32,5.54,25.3,25.3,0,0,1,4.42,9.19l-12.3,5.75a15.27,15.27,0,0,0-4.21-6.66,9.2,9.2,0,0,0-6.17-2.29q-4.47,0-6.87,1.89a6.26,6.26,0,0,0-2.4,5.2v2.61a6.71,6.71,0,0,0,1.6,4.66,11.48,11.48,0,0,0,3.94,2.82q2.34,1,6.5,2.37a3,3,0,0,1,.69.18c.21.09.42.17.64.24a2,2,0,0,1,.5.14,3.27,3.27,0,0,0,.46.13,53.55,53.55,0,0,1,9.61,3.89A17.36,17.36,0,0,1,260,58.66c1.72,2.71,2.58,6.33,2.58,10.83V72.8a21.88,21.88,0,0,1-2.87,11.44,18.35,18.35,0,0,1-8.36,7.3,35.5,35.5,0,0,1-24.66.56Z" transform="translate(-2.66 -6.66)"/><path class="cls-1" d="M308.81,107.94H295L329.57,6.66h13.85Z" transform="translate(-2.66 -6.66)"/><path class="cls-1" d="M344.22,33.87,382,57.78H358.86l-14.64-6.71Zm14.64,23.91H382l-37.75,24V65Z" transform="translate(-2.66 -6.66)"/><rect class="cls-2" x="184.34" y="28.09" width="46" height="7"/><rect class="cls-2" x="112.99" y="66.22" width="58.59" height="7"/></g></g></svg>